<?xml version="1.0" encoding="UTF-8" standalone="no"?>
<!DOCTYPE svg PUBLIC "-//W3C//DTD SVG 1.1//EN" "http://www.w3.org/Graphics/SVG/1.1/DTD/svg11.dtd">
<svg width="100%" height="100%" viewBox="0 0 24 24" version="1.1" xmlns="http://www.w3.org/2000/svg" xmlns:xlink="http://www.w3.org/1999/xlink" xml:space="preserve" xmlns:serif="http://www.serif.com/" style="fill-rule:evenodd;clip-rule:evenodd;stroke-linejoin:round;stroke-miterlimit:2;">
    <path id="app-light" d="M17,12L17,3C17,2.451 16.549,2 16,2L3,2C2.451,2 2,2.451 2,3L2,17L6,13L16,13C16.549,13 17,12.549 17,12M21,6L19,6L19,15L6,15L6,17C6,17.549 6.451,18 7,18L18,18L22,22L22,7C22,6.451 21.549,6 21,6Z" style="fill-rule:nonzero;"/>
</svg>
